<?xml version="1.0" encoding="iso-8859-1"?>
<!-- Generator: Adobe Illustrator 21.0.0, SVG Export Plug-In . SVG Version: 6.00 Build 0)  -->
<svg xmlns="http://www.w3.org/2000/svg" xmlns:xlink="http://www.w3.org/1999/xlink" version="1.1" id="Capa_1" x="0px" y="0px" viewBox="0 0 511.969 511.969" style="enable-background:new 0 0 511.969 511.969;" xml:space="preserve" width="512" height="512">
<g>
	<path style="fill:#FFEF31;" d="M482.799,434.334H53.138c-16.084,0-29.17-13.085-29.17-29.169V160.503   c0-16.084,13.086-29.169,29.17-29.169h429.66c16.084,0,29.17,13.085,29.17,29.169v244.661   C511.969,421.248,498.883,434.334,482.799,434.334z M482.799,161.334h0.01H482.799z"/>
	<path style="fill:#EAD000;" d="M482.799,131.334H267.885v303h214.913c16.084,0,29.17-13.085,29.17-29.169V160.503   C511.969,144.419,498.883,131.334,482.799,131.334z"/>
	<path style="fill:#152659;" d="M436.969,329.333h-107c-8.284,0-15-6.716-15-15s6.716-15,15-15h107c8.284,0,15,6.716,15,15   S445.253,329.333,436.969,329.333z"/>
	<path style="fill:#152659;" d="M401.964,389.333h-71.995c-8.284,0-15-6.716-15-15s6.716-15,15-15h71.995c8.284,0,15,6.716,15,15   S410.248,389.333,401.964,389.333z"/>
	<path style="fill:#F90053;" d="M511.969,211.833H212.631c11.787-4.775,24.711-11.461,33.403-20.153   c26.048-26.048,26.048-68.431,0-94.478c-12.618-12.618-29.395-19.567-47.239-19.567c-17.844,0-34.62,6.949-47.238,19.567   c-7.881,7.881-14.117,19.244-18.771,30.081c-4.654-10.837-10.89-22.2-18.771-30.081c-12.618-12.618-29.395-19.567-47.238-19.567   c-17.845,0-34.621,6.949-47.239,19.567c-26.048,26.047-26.048,68.43,0,94.479c8.692,8.692,21.617,15.378,33.403,20.153H23.969v30   H92.99l-20.821,20.248c-5.939,5.775-6.072,15.271-0.297,21.211c5.775,5.94,15.272,6.071,21.211,0.296l26.877-26.137v161.882   c0,8.284,6.716,15,15,15s15-6.716,15-15V259.189l26.478,27.773c2.947,3.092,6.899,4.649,10.858,4.649   c3.719,0,7.444-1.375,10.349-4.143c5.996-5.717,6.223-15.211,0.506-21.208l-23.288-24.427h337.106V211.833z M153.092,159.742   c5.073-18.022,12.981-34.63,19.678-41.327c6.952-6.952,16.194-10.78,26.025-10.78c9.832,0,19.074,3.829,26.026,10.78   c14.351,14.351,14.351,37.701,0,52.052c-6.696,6.696-23.305,14.604-41.327,19.678c-18.049,5.081-30.221,5.483-35.185,4.781   C147.608,189.967,148.01,177.792,153.092,159.742z M40.749,118.415c6.952-6.952,16.194-10.78,26.026-10.78   c9.831,0,19.073,3.829,26.025,10.78c6.696,6.697,14.604,23.305,19.678,41.327c5.082,18.051,5.483,30.226,4.782,35.185   c-4.962,0.702-17.136,0.299-35.185-4.781c-18.022-5.074-34.631-12.981-41.327-19.678C26.398,156.116,26.398,132.766,40.749,118.415   z"/>
	<rect x="267.885" y="211.833" style="fill:#A50043;" width="244.083" height="30"/>
</g>















</svg>
